<svg xmlns="http://www.w3.org/2000/svg" width="380" height="74" viewBox="0 0 380 74" fill="none">
    <path class="fig4-playpix" d="M380 57.2248H191.153C187.986 57.2248 185.117 55.3567 183.836 52.4604L171.146 23.7647C169.865 20.8683 166.996 19.0002 163.83 19.0002L0 19M194 20.3591L204 43.6796M204 20.3591L214 43.6796M214 20.3591L224 43.6796M224 20.3591L234 43.6796M234 20.3591L244 43.6796M244 20.3591L254 43.6796M254 20.3591L264 43.6796M264 20.3591L274 43.6796M274 20.3591L284 43.6796M284 20.3591L294 43.6796M294 20.3591L304 43.6796M304 20.3591L314 43.6796" stroke="url(#paint0_linear_1541_40493)" stroke-width="2"/>
    <defs>
    <linearGradient id="paint0_linear_1541_40493" x1="380.167" y1="38.1169" x2="-18.7455" y2="37.7718" gradientUnits="userSpaceOnUse">
    <stop stop-color="#87ea5c"/>
    <stop offset="1" stop-color="#33BEFF"/>
    </linearGradient>
    </defs>
    </svg>