<svg xmlns="http://www.w3.org/2000/svg" width="659" height="301" viewBox="0 0 659 301" fill="none">
    <path class="fig6-playpix" d="M578.672 41.9445L564.437 62.2126L564.195 62.5565L555.456 75L555.307 75.2126L426.594 258.481L426.041 259.268H427.003H456.323H456.583L456.732 259.055L608.81 42.5192L609.363 41.7319H608.401H579.081H578.821L578.672 41.9445ZM556.678 75L564.913 63.2743L576.639 75H556.678ZM373.985 224.784L374.19 224.45L374.189 224.449C376.835 220.083 379.177 215.41 381.219 210.467H381.22L381.345 210.16C381.346 210.159 381.346 210.158 381.347 210.156C388.407 192.924 391.852 172.423 391.852 150.177C391.852 118.925 384.912 91.0164 370.534 70.9068C356.141 50.776 334.32 38.5 304.681 38.5C274.881 38.5 252.98 50.7752 238.546 70.9063C224.127 91.0161 217.187 118.925 217.187 150.177C217.187 181.751 224.127 209.821 238.545 230.012C252.979 250.225 274.881 262.5 304.681 262.5C336.803 262.5 359.734 248.082 373.985 224.786C373.985 224.785 373.985 224.785 373.985 224.784ZM380.136 210.467C378.183 215.146 375.958 219.574 373.461 223.721L360.207 210.467H380.136ZM34.944 98.4667C34.944 96.7945 35.0113 95.138 35.1455 93.5H54.7929L36.3279 111.965C35.4008 107.663 34.944 103.136 34.944 98.4667ZM34.1422 93.5C34.0102 95.1389 33.944 96.7954 33.944 98.4667C33.944 103.427 34.4526 108.239 35.4893 112.804L35.4887 112.804L35.5515 113.075C39.6772 130.841 51.8391 144.763 73.0266 148.972C56.433 153.472 45.1684 161.333 37.993 170.76C30.5051 180.598 27.5 192.102 27.5 203.18C27.5 220.764 33.9181 235.622 47.1428 246.071C60.3513 256.508 80.2918 262.5 107.261 262.5C134.07 262.5 154.009 256.507 167.258 246.072C180.522 235.624 187.022 220.766 187.022 203.18C187.022 192.088 183.606 180.583 175.715 170.75C168.154 161.327 156.504 153.468 139.876 148.969C152.753 146.389 162.736 140.162 169.594 131.582C176.843 122.514 180.578 110.845 180.578 98.1435C180.578 81.8447 174.075 66.9196 161.638 56.0753C149.205 45.2339 130.875 38.5 107.261 38.5C84.8277 38.5 67.2419 44.4948 54.9157 54.3149C42.5859 64.1378 35.5503 77.7645 34.1885 92.9554L34.1397 93.5H34.1422ZM150.258 101.699C150.258 111.909 146.445 120.734 139.194 127.014C131.936 133.299 121.189 137.072 107.261 137.072C91.7084 137.072 81.056 133.293 74.2935 127.025C67.5369 120.763 64.5863 111.945 64.5863 101.699C64.5863 92.4343 67.6102 83.5245 74.4222 76.9299C81.2333 70.3362 91.8893 66.0014 107.261 66.0014C122.633 66.0014 133.37 70.3363 140.263 76.9319C147.156 83.5279 150.258 92.4378 150.258 101.699ZM153.48 198.332C153.48 207.958 151.241 217.094 144.406 223.831C137.568 230.57 126.041 234.999 107.261 234.999C88.4813 234.999 76.9534 230.57 70.116 223.831C63.2813 217.094 61.0421 207.958 61.0421 198.332C61.0421 187.63 64.8601 178.24 72.5115 171.519C80.1689 164.793 91.7188 160.696 107.261 160.696C122.803 160.696 134.353 164.793 142.01 171.519C149.662 178.24 153.48 187.63 153.48 198.332ZM361.532 150.177C361.532 175.031 357.909 196.172 349.037 211.085C340.189 225.955 326.099 234.675 305.003 234.675C283.743 234.675 269.492 225.953 260.525 211.082C251.533 196.17 247.829 175.029 247.829 150.177C247.829 125.648 251.532 104.588 260.525 89.6756C269.492 74.8032 283.745 66.0014 305.003 66.0014C326.098 66.0014 340.189 74.8013 349.037 89.673C357.909 104.586 361.532 125.647 361.532 150.177ZM415.548 88.1246C415.548 103.106 420.583 115.438 429.064 124.027C437.544 132.615 449.437 137.426 463.089 137.426C476.582 137.426 488.394 132.614 496.834 124.026C505.273 115.438 510.308 103.106 510.308 88.1246C510.308 73.1431 505.273 60.8116 496.834 52.2235C488.394 43.6356 476.582 38.8232 463.089 38.8232C449.437 38.8232 437.544 43.6346 429.064 52.2226C420.583 60.811 415.548 73.143 415.548 88.1246ZM487.076 88.1246C487.076 96.6019 484.764 103.504 480.633 108.28C476.509 113.047 470.532 115.742 463.089 115.742C455.648 115.742 449.752 113.047 445.709 108.283C441.658 103.509 439.424 96.6061 439.424 88.1246C439.424 79.4796 441.659 72.4956 445.711 67.6817C449.753 62.8785 455.648 60.184 463.089 60.184C470.531 60.184 476.508 62.8793 480.632 67.6854C484.763 72.5003 487.076 79.4837 487.076 88.1246ZM525.74 209.967C525.74 224.948 530.775 237.28 539.256 245.869C547.736 254.457 559.629 259.268 573.281 259.268C586.774 259.268 598.586 254.456 607.026 245.868C615.465 237.28 620.5 224.948 620.5 209.967C620.5 194.985 615.465 182.654 607.026 174.066C598.586 165.478 586.774 160.665 573.281 160.665C559.629 160.665 547.736 165.477 539.256 174.065C530.775 182.653 525.74 194.985 525.74 209.967ZM597.268 209.967C597.268 218.444 594.956 225.346 590.825 230.122C586.701 234.889 580.724 237.584 573.281 237.584C565.84 237.584 559.944 234.889 555.901 230.125C551.85 225.351 549.616 218.448 549.616 209.967C549.616 201.322 551.851 194.338 555.902 189.524C559.945 184.721 565.84 182.026 573.281 182.026C580.723 182.026 586.7 184.721 590.824 189.527C594.955 194.342 597.268 201.326 597.268 209.967Z" fill="url(#paint0_linear_1543_40537)" stroke="url(#paint1_linear_1543_40537)"/>
    <defs>
    <linearGradient id="paint0_linear_1543_40537" x1="620.259" y1="150.526" x2="-1.20398" y2="150.382" gradientUnits="userSpaceOnUse">
    <stop stop-color="#87ea5c"/>
    <stop offset="1" stop-color="#87ea5c"/>
    </linearGradient>
    <linearGradient id="paint1_linear_1543_40537" x1="620.259" y1="150.526" x2="-1.20398" y2="150.382" gradientUnits="userSpaceOnUse">
    <stop stop-color="#87ea5c"/>
    <stop offset="1" stop-color="#87ea5c"/>
    </linearGradient>
    </defs>
    </svg>