<svg xmlns="http://www.w3.org/2000/svg" width="32" height="32" viewBox="0 0 32 32" fill="none">
    <path
        d="M23.258 9.61403L20.4979 5.93388C19.7546 4.94277 18.3665 4.70499 17.3356 5.39221L10.921 9.66861M26.1759 14.9208H23.258C21.6465 14.9208 20.3401 16.2272 20.3401 17.8387C20.3401 19.4502 21.6465 20.7566 23.258 20.7566H26.1759M26.1759 14.9208C26.8205 14.9208 27.3431 15.4433 27.3431 16.0879V19.5894C27.3431 20.234 26.8205 20.7566 26.1759 20.7566M26.1759 14.9208V12.5865C26.1759 10.975 24.8695 9.66861 23.258 9.66861H8.08503C6.47353 9.66861 5.16715 10.975 5.16715 12.5865V15.5044M26.1759 20.7566L26.1759 23.0909C26.1759 24.7024 24.8695 26.0087 23.258 26.0087H15.6715M10.2384 21.5829L8.27761 23.5426L7.09879 22.3672M13.3372 22.5073C13.3372 25.0857 11.247 27.1759 8.66861 27.1759C6.09021 27.1759 4 25.0857 4 22.5073C4 19.9289 6.09021 17.8387 8.66861 17.8387C11.247 17.8387 13.3372 19.9289 13.3372 22.5073Z"
        stroke="#33BEFF" stroke-width="2" stroke-linecap="round" stroke-linejoin="round" />
</svg>