<svg xmlns="http://www.w3.org/2000/svg" width="32" height="32" viewBox="0 0 32 32" fill="none">
    <path d="M16.7202 21.9237H19.0058C19.6504 21.9237 20.173 21.4012 20.173 20.7566V19.0139M10.8358 13.7536V13.1701C10.8358 10.914 12.6647 9.08503 14.9208 9.08503H16.088C18.3441 9.08503 20.173 10.914 20.173 13.1701V13.7536M18.4223 14.4539V18.3055C18.4223 18.6923 18.7358 19.0058 19.1225 19.0058H20.4648C21.2705 19.0058 21.9237 18.3526 21.9237 17.5469V15.2126C21.9237 14.4068 21.2705 13.7536 20.4648 13.7536H19.1225C18.7358 13.7536 18.4223 14.0672 18.4223 14.4539ZM10.8333 26.0087H20.1754C23.3971 26.0087 26.0087 23.3971 26.0087 20.1754V10.8333C26.0087 7.61167 23.3971 5 20.1754 5H10.8333C7.61167 5 5 7.61167 5 10.8333V20.1754C5 23.3971 7.61167 26.0087 10.8333 26.0087ZM12.5865 18.3055V14.4539C12.5865 14.0672 12.273 13.7536 11.8862 13.7536H10.544C9.73822 13.7536 9.08503 14.4068 9.08503 15.2126V17.5469C9.08503 18.3526 9.73822 19.0058 10.544 19.0058H11.8862C12.273 19.0058 12.5865 18.6923 12.5865 18.3055Z" stroke="#33BEFF" stroke-width="2" stroke-linecap="round" stroke-linejoin="round"/>
    </svg>