<svg xmlns="http://www.w3.org/2000/svg" width="200" height="64" viewBox="0 0 200 64" fill="none">
    <g id="logo-playpix-extended">
    <g id="logo-playpix" class="logo-playpix">
    <path id="Vector" d="M11 15.6574V55.406H21.3254C22.7142 55.406 23.4388 54.5575 24.5257 53.3827L33.5831 43.5924H39.9836C58.823 43.5924 58.823 9 39.9836 9H17.159C13.4757 9 11 11.5455 11 15.6574Z" fill="url(#paint0_linear_1599_42033)"/>
    <g id="Mask group">
    <mask id="mask0_1599_42033" style="mask-type:alpha" maskUnits="userSpaceOnUse" x="11" y="9" width="44" height="47">
    <g id="Group">
    <path id="Vector_2" d="M11 15.6574V55.406H21.3254C22.7142 55.406 23.4388 54.5575 24.5257 53.3827L33.5831 43.5924H39.9836C58.823 43.5924 58.823 9 39.9836 9H17.159C13.4757 9 11 11.5455 11 15.6574Z" fill="#11E8D2"/>
    </g>
    </mask>
    <g mask="url(#mask0_1599_42033)">
    <g id="Group_2">
    <g id="Group_3" filter="url(#filter0_f_1599_42033)">
    <path id="Vector_3" d="M57.615 28.1888C76.0899 28.1888 91.0669 16.7631 91.0669 2.66875C91.0669 -11.4256 76.0899 -22.8513 57.615 -22.8513C39.14 -22.8513 24.1631 -11.4256 24.1631 2.66875C24.1631 16.7631 39.14 28.1888 57.615 28.1888Z" fill="#5096FF" fill-opacity="0.94"/>
    </g>
    <g id="Group_4" filter="url(#filter1_f_1599_42033)">
    <path id="Vector_4" d="M-15.4466 94.1096C6.42994 94.1096 24.1644 76.1382 24.1644 53.9694C24.1644 31.8005 6.42994 13.8291 -15.4466 13.8291C-37.3232 13.8291 -55.0576 31.8005 -55.0576 53.9694C-55.0576 76.1382 -37.3232 94.1096 -15.4466 94.1096Z" fill="black" fill-opacity="0.13"/>
    </g>
    </g>
    </g>
    </g>
    <path id="Vector_5" d="M25.4916 43.592H33.5225L26.3973 51.4243H14.8643L19.8156 46.3333C20.5402 45.55 23.3782 43.592 25.4916 43.592Z" fill="url(#paint1_linear_1599_42033)"/>
    <path id="Vector_6" d="M29.3586 19.8908C28.0668 19.1482 27.0195 19.7566 27.0195 21.2485V32.258C27.0195 33.7514 28.0668 34.359 29.3586 33.6171L38.9603 28.0985C40.2524 27.3556 40.2524 26.1521 38.9603 25.4095L29.3586 19.8908Z" fill="white"/>
    </g>
    <path id="name" class="name-playpix" fill-rule="evenodd" clip-rule="evenodd" d="M64 21.6735V28.347H65.6265H67.253V23.2001V18.0532L71.0556 18.055C73.147 18.0559 75.1351 18.0959 75.4736 18.1439C76.4694 18.2849 77.0984 18.4681 77.8626 18.8397C78.85 19.3198 79.5261 19.9896 79.9908 20.948C80.4938 21.9855 80.6489 22.8517 80.5959 24.3263C80.5619 25.2699 80.5134 25.6148 80.3579 26.0162C80.2504 26.2937 80.0372 26.6828 79.8841 26.881C79.3301 27.5983 78.3537 28.0731 77.0561 28.2565C76.7176 28.3044 75.1449 28.3443 73.5613 28.3452L70.6819 28.347V30.0142V31.6815L73.7811 31.6358C76.9418 31.5893 77.5369 31.5345 78.9024 31.1643C79.6809 30.9533 80.7274 30.5002 81.2999 30.1263C82.4651 29.3655 83.443 28.0333 83.847 26.6562C83.9613 26.2667 84.0889 25.5645 84.1306 25.0956C84.3261 22.8923 83.9146 20.7559 82.9838 19.1417C82.5251 18.3463 81.5846 17.3146 80.8328 16.7824C80.027 16.2118 78.7589 15.6476 77.7118 15.394C77.1325 15.2536 76.3207 15.1402 75.5175 15.0874C74.8164 15.0413 71.9381 15.0028 69.1213 15.0018L64 15V21.6735ZM87.4746 24.9884V34.9769H89.1011H90.7277V24.9884V15H89.1011H87.4746V24.9884ZM134.512 21.6791V28.347H136.138H137.763L137.786 23.2219L137.809 18.0969L141.414 18.0712C143.655 18.0553 145.351 18.0823 145.897 18.1426C147.415 18.3101 148.695 18.8356 149.634 19.6771C150.104 20.099 150.629 20.9942 150.855 21.7607C151.089 22.5549 151.245 23.9653 151.173 24.6343C151.042 25.844 150.619 26.8001 149.977 27.339C149.617 27.6405 148.987 27.9364 148.271 28.1395C147.828 28.2653 147.222 28.2949 144.469 28.3254L141.194 28.3616V30.0208V31.68L144.337 31.6361C147.685 31.5894 148.218 31.5351 149.7 31.0892C150.1 30.9691 150.792 30.6862 151.239 30.4605C151.876 30.1389 152.204 29.8993 152.756 29.3512C153.144 28.9669 153.61 28.3972 153.792 28.0853C154.629 26.6506 154.935 24.4832 154.606 22.3278C154.444 21.2714 154.193 20.4631 153.745 19.5623C153.088 18.2391 151.957 17.0588 150.615 16.2972C150.26 16.0956 149.587 15.8013 149.12 15.6429C147.594 15.1256 147.298 15.1052 140.6 15.0559L134.512 15.0111V21.6791ZM158.047 15.0563C158.014 15.0893 157.986 15.8462 157.986 16.7383V18.3603L159.592 19.9515C160.475 20.8266 161.227 21.5426 161.263 21.5426C161.3 21.5426 161.319 20.0804 161.306 18.2931L161.283 15.0436L159.695 15.0199C158.822 15.0069 158.08 15.0232 158.047 15.0563ZM164.756 15.0439C164.756 15.068 166.26 18.071 168.097 21.7174L171.438 28.347L168.097 34.9766C166.26 38.623 164.756 41.626 164.756 41.6501C164.756 41.6743 165.744 41.694 166.952 41.694H169.148L172.474 35.0917C174.303 31.4604 175.837 28.4768 175.884 28.4614C175.93 28.4462 177.47 31.4172 179.305 35.0638L182.642 41.694H184.821C186.02 41.694 187 41.6743 187 41.6501C187 41.626 185.5 38.6308 183.668 34.9941L180.335 28.3818L183.668 21.7722C185.5 18.137 187 15.1254 187 15.0798C187 15.029 186.156 15.006 184.824 15.0203L182.648 15.0436L179.307 21.6462C177.469 25.2776 175.939 28.2753 175.905 28.3077C175.871 28.34 174.328 25.359 172.476 21.6833L169.109 15H166.933C165.736 15 164.756 15.0197 164.756 15.0439ZM100.34 21.8407C99.07 22.0806 97.8508 22.5792 96.7674 23.3016C96.0901 23.7532 95.0096 24.8275 94.5735 25.483C94.3925 25.7551 94.2445 26.0133 94.2445 26.0568C94.2445 26.1178 95.2326 27.2506 96.2684 28.3771C96.3057 28.4177 96.4879 28.1625 96.6734 27.8101C96.9074 27.3657 97.2402 26.9389 97.7597 26.4175C98.3523 25.8226 98.6462 25.6015 99.168 25.3584C100.043 24.9508 100.632 24.8195 101.586 24.8195C102.881 24.8195 103.683 25.0849 104.421 25.7579C104.948 26.2377 105.355 27.0849 105.498 27.9971C105.559 28.3851 105.593 28.7184 105.573 28.7377C105.554 28.7571 103.885 29.5577 101.866 30.517C99.7297 31.5316 97.8735 32.4723 97.428 32.7662C96.5357 33.3546 95.4745 34.3706 95.0029 35.088C94.8209 35.365 94.5719 35.8753 94.4496 36.2221C94.254 36.7766 94.2311 36.9626 94.2597 37.7684C94.2883 38.5758 94.3246 38.7515 94.5653 39.2514C94.927 40.0025 95.6076 40.6657 96.3985 41.0377C97.3301 41.476 98.0826 41.6307 99.2999 41.6345C100.517 41.6382 101.153 41.5011 102.137 41.0229C102.88 40.6616 103.856 39.8066 104.35 39.0849C104.783 38.4506 105.265 37.4844 105.408 36.9592C105.471 36.7301 105.557 36.5217 105.598 36.4961C105.64 36.4705 105.676 36.7954 105.679 37.218C105.681 37.6407 105.703 38.1631 105.728 38.379C105.798 38.9853 106.003 39.7378 106.206 40.132C106.439 40.5856 107.029 41.1728 107.45 41.3709C108.002 41.63 108.66 41.699 110.343 41.6742L111.96 41.6504V40.2546V38.8588L110.976 38.8152C109.996 38.7718 109.99 38.7702 109.678 38.4701C109.506 38.3044 109.326 38.0296 109.278 37.8595C109.226 37.6729 109.192 35.5222 109.191 32.4329C109.191 26.9744 109.169 26.6362 108.745 25.5118C108.637 25.224 108.394 24.7454 108.206 24.4485C107.819 23.839 107.039 23.0842 106.431 22.7306C105.891 22.4166 105.004 22.0904 104.233 21.9223C103.372 21.7345 101.15 21.6879 100.34 21.8407ZM111.653 21.7738C111.653 21.807 113.144 26.2829 114.966 31.7205L118.28 41.6068H119.362C119.973 41.6068 120.445 41.6422 120.445 41.6881C120.445 41.8953 119.654 43.9892 119.437 44.3565C118.867 45.3215 118.144 45.8342 117.155 45.9744C116.464 46.0725 115.637 45.943 115.011 45.6389C114.432 45.3577 113.722 44.6797 113.205 43.9154L112.827 43.357L111.92 44.6327L111.012 45.9085L111.178 46.222C111.269 46.3945 111.649 46.837 112.021 47.2056C112.56 47.739 112.865 47.9568 113.516 48.2737C113.966 48.4927 114.572 48.7322 114.862 48.8062C115.723 49.0257 116.942 49.0624 117.895 48.8976C119.889 48.5528 121.321 47.3933 122.285 45.3443C122.474 44.9439 122.894 43.792 123.219 42.7844C124.288 39.4679 124.719 38.1412 126.818 31.7056C129.936 22.1499 130.028 21.8647 130.028 21.7863C130.028 21.7463 129.212 21.7242 128.215 21.7372L126.403 21.7607L124.363 28.914C123.241 32.8483 122.054 36.8721 121.724 37.8556C120.999 40.0147 121.057 39.862 120.971 39.862C120.909 39.862 119.545 35.8363 119.256 34.8024C119.154 34.4351 117.07 27.6212 115.989 24.1161C115.722 23.2525 115.456 22.3692 115.397 22.1533L115.29 21.7607L113.471 21.7372C112.471 21.7242 111.653 21.7407 111.653 21.7738ZM157.986 31.7056V41.694H159.657H161.327V31.7056V21.7171H159.657H157.986V31.7056ZM65.5597 30.0708L64 31.6201V36.657V41.694H65.6265H67.253V35.1077C67.253 31.4853 67.223 28.5215 67.1862 28.5215C67.1494 28.5215 66.4174 29.2186 65.5597 30.0708ZM136.115 30.1144L134.512 31.7073V36.7006V41.694H136.138H137.765V35.1077C137.765 31.4853 137.755 28.5215 137.742 28.5215C137.729 28.5215 136.997 29.2383 136.115 30.1144ZM105.537 35.1077C105.458 35.4436 105.269 35.9539 105.118 36.2418C104.718 37.0054 103.841 37.8438 103.036 38.2324C102.674 38.4076 102.141 38.6104 101.853 38.6831C101.142 38.8625 99.7596 38.856 99.2116 38.6708C98.674 38.4891 98.102 37.9337 97.9573 37.453C97.8215 37.002 97.8188 36.4003 97.9507 36.0149C98.0066 35.8518 98.1507 35.581 98.2711 35.413C98.7364 34.7638 99.4322 34.3354 102.544 32.7826L105.63 31.2425L105.656 32.8698C105.677 34.1487 105.651 34.6278 105.537 35.1077ZM87.4746 38.4017V41.694H89.1011H90.7277V40.0138V38.3337L89.1011 36.7216L87.4746 35.1095V38.4017Z" fill="#041321" stroke="#041321"/>
    </g>
    <defs>
    <filter id="filter0_f_1599_42033" x="-55.4703" y="-102.485" width="226.17" height="210.307" filterUnits="userSpaceOnUse" color-interpolation-filters="sRGB">
    <feFlood flood-opacity="0" result="BackgroundImageFix"/>
    <feBlend mode="normal" in="SourceGraphic" in2="BackgroundImageFix" result="shape"/>
    <feGaussianBlur stdDeviation="39.8167" result="effect1_foregroundBlur_1599_42033"/>
    </filter>
    <filter id="filter1_f_1599_42033" x="-134.691" y="-65.8043" width="238.488" height="239.547" filterUnits="userSpaceOnUse" color-interpolation-filters="sRGB">
    <feFlood flood-opacity="0" result="BackgroundImageFix"/>
    <feBlend mode="normal" in="SourceGraphic" in2="BackgroundImageFix" result="shape"/>
    <feGaussianBlur stdDeviation="39.8167" result="effect1_foregroundBlur_1599_42033"/>
    </filter>
    <linearGradient id="paint0_linear_1599_42033" x1="54.132" y1="32.2084" x2="8.87318" y2="32.2048" gradientUnits="userSpaceOnUse">
    <stop stop-color="#87ea5c"/>
    <stop offset="1" stop-color="#33BEFF"/>
    </linearGradient>
    <linearGradient id="paint1_linear_1599_42033" x1="27.6049" y1="43.9184" x2="23.7408" y2="50.2528" gradientUnits="userSpaceOnUse">
    <stop stop-color="#004E96"/>
    <stop offset="1" stop-color="#045DB0" stop-opacity="0"/>
    </linearGradient>
    </defs>
    </svg>